<svg xmlns="http://www.w3.org/2000/svg" viewBox="0 0 45.56 38.59"><defs><style>.cls-1{fill:#bf7428;}.cls-2{fill:#b3a99e;}.cls-3{fill:#d9d4cf;}.cls-4{fill:#ff9b35;}.cls-5{fill:#fffef1;}.cls-6{fill:#e6dcd1;}</style></defs><title>bird not flap</title><g id="Layer_2" data-name="Layer 2"><g id="Layer_1-2" data-name="Layer 1"><path class="cls-1" d="M12.14,29.86A14.79,14.79,0,0,0,12.68,32a19.22,19.22,0,0,0,1.48,3.24c.5.88.71,1.1.59,1.31-.28.5-2.19.37-2.93-.65-.62-.85-.09-1.91-.54-2.16-.3-.17-.93,0-2.39,1.52"/><path class="cls-2" d="M19.49,20.09c-2.55,1.69,5,13,7.54,11.35s2.93-5.61.85-8.75S22,18.39,19.49,20.09Z"/><path class="cls-3" d="M28.08,16.19c1.44,3.76-3.64,9.2-11.35,12.14a24.09,24.09,0,0,1-4.86,1.39c-4.07.56-10.58,0-11.69-2.9C-1.12,23.47,5,17.19,11.53,14.68,19.23,11.74,26.64,12.42,28.08,16.19Z"/><path class="cls-4" d="M35.84,4.6c7.44.85,8.9,1.39,8.89,1.73,0,.75-7.16,1.08-7.14,1.43s7.88-.07,8,.65c0,.4-2.32,1.13-8.22,2.34"/><path class="cls-5" d="M37.58,8.5A8.5,8.5,0,1,1,29.08,0a8.88,8.88,0,0,1,8.08,5.87c.1.29.18.59.18.59a6.83,6.83,0,0,1,.22,1.43S37.58,8.19,37.58,8.5Z"/><circle cx="31.08" cy="6.5" r="1.5"/><path class="cls-6" d="M15.64,15.55c3.6,1.07-3.26,24.07-6.86,23s-5-7.09-3.07-13.44S12.05,14.48,15.64,15.55Z"/><path class="cls-4" d="M7.58,30a15.31,15.31,0,0,1-1,2,19.78,19.78,0,0,1-2.14,2.85c-.68.75-.93.92-.86,1.15.17.55,2.06.83,3,0,.79-.7.5-1.85,1-2,.32-.1.89.24,2,2"/></g></g></svg>