<svg xmlns="http://www.w3.org/2000/svg" viewBox="0 0 50.87 36.86"><defs><style>.cls-1{fill:#bf7428;}.cls-2{fill:#b3a99e;}.cls-3{fill:#d9d4cf;}.cls-4{fill:#ff9b35;}.cls-5{fill:#fffef1;}.cls-6{fill:#e6dcd1;}</style></defs><title>bird flap</title><g id="Layer_2" data-name="Layer 2"><g id="Layer_1-2" data-name="Layer 1"><path class="cls-1" d="M17.45,29.86A14.79,14.79,0,0,0,18,32a19.22,19.22,0,0,0,1.48,3.24c.5.88.71,1.1.59,1.31-.28.5-2.19.37-2.93-.65-.62-.85-.09-1.91-.54-2.16s-.93,0-2.39,1.52"/><path class="cls-2" d="M24.8,13.59C22.14,15.1,15.4,3.25,18.06,1.74s6.33-.09,8.19,3.19S27.46,12.08,24.8,13.59Z"/><path class="cls-3" d="M33.39,16.19C34.83,20,29.75,25.39,22,28.33a23.91,23.91,0,0,1-4.86,1.39c-4.07.56-10.58,0-11.69-2.9-1.3-3.35,4.77-9.63,11.35-12.14C24.54,11.74,32,12.42,33.39,16.19Z"/><path class="cls-4" d="M41.15,4.6C48.59,5.45,50.05,6,50,6.33c0,.75-7.16,1.08-7.14,1.43s7.88-.07,8,.65c.05.4-2.32,1.13-8.22,2.34"/><path class="cls-5" d="M42.89,8.5A8.5,8.5,0,1,1,34.39,0a8.87,8.87,0,0,1,8.08,5.87c.1.29.18.59.18.59a6.83,6.83,0,0,1,.22,1.43S42.89,8.19,42.89,8.5Z"/><circle cx="36.39" cy="6.5" r="1.5"/><path class="cls-6" d="M21.25,16.91C19.48,20.21-1.67,8.86.11,5.56s7.94-3.44,13.78-.31S23,13.6,21.25,16.91Z"/><path class="cls-4" d="M12.89,30a15.31,15.31,0,0,1-1,2,19.78,19.78,0,0,1-2.14,2.85c-.68.75-.93.92-.86,1.15.17.55,2.06.83,3,0,.79-.7.5-1.85,1-2,.32-.1.89.24,2,2"/></g></g></svg>