<svg xmlns="http://www.w3.org/2000/svg" viewBox="0 0 1467 1081"><defs><style>.cls-1{fill:#76848c;}.cls-2{fill:#697d99;}.cls-3{fill:#58995d;}.cls-4{fill:#cc8533;}.cls-5{fill:#b0bf45;}</style></defs><title>Building</title><g id="Layer_2" data-name="Layer 2"><g id="Layer_2-2" data-name="Layer 2"><rect class="cls-1" x="181" width="1113" height="1080"/></g><g id="Layer_1-2" data-name="Layer 1"><rect class="cls-2" x="168.87" y="343.9" width="7.59" height="122.38" transform="translate(345.33 810.18) rotate(-180)"/><rect class="cls-2" x="48.38" y="590.56" width="132.82" height="40.79"/><rect class="cls-2" x="58.82" y="489.05" width="122.38" height="10.44"/><rect class="cls-2" x="58.82" y="524.15" width="122.38" height="10.44"/><rect class="cls-2" x="58.82" y="559.26" width="122.38" height="10.44"/><rect class="cls-2" x="58.82" y="654.13" width="122.38" height="10.44"/><rect class="cls-2" x="58.82" y="688.28" width="122.38" height="10.44"/><rect class="cls-2" x="58.82" y="722.44" width="122.38" height="10.44"/><rect class="cls-2" x="6.64" y="450.15" width="174.56" height="17.08" transform="translate(187.85 917.38) rotate(-180)"/><rect class="cls-2" x="155.59" y="343.9" width="7.59" height="122.38" transform="translate(318.77 810.18) rotate(-180)"/><rect class="cls-2" x="141.36" y="343.9" width="7.59" height="122.38" transform="translate(290.31 810.18) rotate(-180)"/><rect class="cls-2" x="127.13" y="343.9" width="7.59" height="122.38" transform="translate(261.85 810.18) rotate(-180)"/><rect class="cls-2" x="155.59" y="343.9" width="7.59" height="122.38" transform="translate(318.77 810.18) rotate(-180)"/><rect class="cls-2" x="112.9" y="343.9" width="7.59" height="122.38" transform="translate(233.38 810.18) rotate(-180)"/><rect class="cls-2" x="99.62" y="343.9" width="7.59" height="122.38" transform="translate(206.82 810.18) rotate(-180)"/><rect class="cls-2" x="86.33" y="343.9" width="7.59" height="122.38" transform="translate(180.26 810.18) rotate(-180)"/><rect class="cls-2" x="73.05" y="343.9" width="7.59" height="122.38" transform="translate(153.69 810.18) rotate(-180)"/><rect class="cls-2" x="59.77" y="343.9" width="7.59" height="122.38" transform="translate(127.13 810.18) rotate(-180)"/><rect class="cls-2" y="343.9" width="181.21" height="10.44" transform="translate(181.21 698.23) rotate(-180)"/><rect class="cls-2" x="40.79" y="508.97" width="7.59" height="122.38"/><rect class="cls-2" x="58.82" y="756.59" width="7.59" height="122.38"/><rect class="cls-2" x="58.82" y="862.85" width="122.38" height="17.08"/><rect class="cls-2" x="72.1" y="756.59" width="7.59" height="122.38"/><rect class="cls-2" x="86.33" y="756.59" width="7.59" height="122.38"/><rect class="cls-2" x="100.56" y="756.59" width="7.59" height="122.38"/><rect class="cls-2" x="72.1" y="756.59" width="7.59" height="122.38"/><rect class="cls-2" x="114.79" y="756.59" width="7.59" height="122.38"/><rect class="cls-2" x="128.08" y="756.59" width="7.59" height="122.38"/><rect class="cls-2" x="141.36" y="756.59" width="7.59" height="122.38"/><rect class="cls-2" x="154.64" y="756.59" width="7.59" height="122.38"/><rect class="cls-2" x="167.92" y="756.59" width="7.59" height="122.38"/><rect class="cls-2" x="53.13" y="756.59" width="129.03" height="10.44"/><rect class="cls-2" x="52.18" y="1004.21" width="132.82" height="40.79"/><rect class="cls-2" x="62.62" y="902.69" width="122.38" height="10.44"/><rect class="cls-2" x="62.62" y="937.79" width="122.38" height="10.44"/><rect class="cls-2" x="62.62" y="972.9" width="122.38" height="10.44"/><rect class="cls-2" x="44.59" y="922.62" width="7.59" height="122.38"/><rect class="cls-2" x="61.67" y="33.67" width="7.59" height="122.38"/><rect class="cls-2" x="51.23" y="280.33" width="132.82" height="40.79"/><rect class="cls-2" x="61.67" y="178.82" width="122.38" height="10.44"/><rect class="cls-2" x="61.67" y="213.92" width="122.38" height="10.44"/><rect class="cls-2" x="61.67" y="249.03" width="122.38" height="10.44"/><rect class="cls-2" x="61.67" y="139.92" width="122.38" height="17.08"/><rect class="cls-2" x="74.95" y="33.67" width="7.59" height="122.38"/><rect class="cls-2" x="89.18" y="33.67" width="7.59" height="122.38"/><rect class="cls-2" x="103.41" y="33.67" width="7.59" height="122.38"/><rect class="cls-2" x="74.95" y="33.67" width="7.59" height="122.38"/><rect class="cls-2" x="117.64" y="33.67" width="7.59" height="122.38"/><rect class="cls-2" x="130.92" y="33.67" width="7.59" height="122.38"/><rect class="cls-2" x="144.21" y="33.67" width="7.59" height="122.38"/><rect class="cls-2" x="157.49" y="33.67" width="7.59" height="122.38"/><rect class="cls-2" x="170.77" y="33.67" width="7.59" height="122.38"/><rect class="cls-2" x="55.97" y="33.67" width="129.03" height="10.44"/><rect class="cls-2" x="43.64" y="198.74" width="7.59" height="122.38"/><rect class="cls-2" x="45.54" y="343.9" width="7.59" height="122.38" transform="translate(98.67 810.18) rotate(-180)"/><rect class="cls-2" x="32.26" y="343.9" width="7.59" height="122.38" transform="translate(72.1 810.18) rotate(-180)"/><rect class="cls-2" x="18.97" y="343.9" width="7.59" height="122.38" transform="translate(45.54 810.18) rotate(-180)"/><rect class="cls-2" x="5.69" y="343.9" width="7.59" height="122.38" transform="translate(18.97 810.18) rotate(-180)"/><rect class="cls-3" x="1294" y="276" width="173" height="140"/><rect class="cls-4" x="1294" y="657" width="173" height="140"/><rect class="cls-5" x="1294" width="173" height="80"/><rect class="cls-5" x="1294" y="1008" width="173" height="73"/></g></g></svg>