<svg xmlns="http://www.w3.org/2000/svg" viewBox="0 0 67 87.4"><defs><style>.cls-1{fill:#f2c38c;}.cls-2{fill:#ffec00;}.cls-3{fill:#271a00;}.cls-4{fill:#cc7e0e;}.cls-5{fill:#417dff;}.cls-6{fill:#a6b2cc;}.cls-7{fill:none;stroke:#a6b2cc;stroke-miterlimit:10;stroke-width:2px;}.cls-8{fill:#fcf3e8;}.cls-9{fill:#733c02;}.cls-10{fill:#995002;}.cls-11{fill:#25468f;}</style></defs><title>man standing</title><g id="Layer_2" data-name="Layer 2"><g id="Layer_1-2" data-name="Layer 1"><path class="cls-1" d="M56,27c1,16-8.73,16-19.5,16S17,35.84,17,27s8.73-16,19.5-16S54.67,5.66,56,27Z"/><rect class="cls-2" x="41" y="18" width="26" height="4"/><circle class="cls-3" cx="47" cy="26" r="3"/><ellipse class="cls-1" cx="57.5" cy="29.5" rx="3.5" ry="2.5" transform="translate(-7.07 26.83) rotate(-24.79)"/><ellipse class="cls-4" cx="52.2" cy="34.71" rx="5.67" ry="1.5" transform="translate(-8.69 19.83) rotate(-19.89)"/><rect class="cls-4" x="15.98" y="20.93" width="9.04" height="7.09" rx="1.15"/><path class="cls-2" d="M58,21.5c0,1.5-43,1.5-43,0a21.5,21.5,0,0,1,43,0Z"/><polygon class="cls-5" points="45 65 26 65 26 47 29.45 46 38.95 46 45 49 45 65"/><rect class="cls-6" y="65" width="16" height="11"/><ellipse class="cls-7" cx="8" cy="66.5" rx="6" ry="7.5"/><path class="cls-1" d="M12.58,56.24c2.16,4.19-.11,5.21-2.62,6.34a4.85,4.85,0,0,1-6.48-2.25A4.85,4.85,0,0,1,6.1,54C8.61,52.86,9.69,50.65,12.58,56.24Z"/><path class="cls-1" d="M55.73,57.56c4.51,1.37,3.66,3.71,2.71,6.3a4.72,4.72,0,1,1-8.85-3.24C50.54,58,49.72,55.72,55.73,57.56Z"/><path class="cls-5" d="M22.28,48.33c.76,1.47-2.86,4.86-8.1,7.58s-8-2.61-2.76-5.33S21.52,46.86,22.28,48.33Z"/><path class="cls-5" d="M17,50c0,1.65,3.84,2.92,8.51,2.83s4.55-6.09-.12-6S17,48.35,17,50Z"/><rect class="cls-1" x="34" y="43" width="4" height="3"/><rect class="cls-5" x="33.75" y="42.17" width="3" height="7.49" transform="translate(79.46 8.56) rotate(87.31)"/><rect class="cls-8" x="29" y="53" width="2" height="12"/><rect class="cls-8" x="34.94" y="41.77" width="1.09" height="7.04" transform="matrix(0.05, 1, -1, 0.05, 79.07, 7.72)"/><path class="cls-9" d="M50.11,85c.37-2.65-3.88-5.44-9.51-6.23S33.41,81.62,33,84.27,49.74,87.62,50.11,85Z"/><path class="cls-10" d="M41.35,84.62c0-2.68-4.51-4.94-10.18-5.06s-6.8,3.71-6.86,6.39S41.29,87.29,41.35,84.62Z"/><polygon class="cls-5" points="35.21 69.67 25.63 69.46 25.38 80.67 27.11 81.34 31.9 81.44 34.99 79.64 35.21 69.67"/><polygon class="cls-5" points="44.61 49.24 41.3 54.18 50.62 60.42 51.74 59.87 53.4 57.4 52.9 54.79 44.61 49.24"/><polygon class="cls-11" points="44.44 69.42 35.44 69.31 35.32 79.33 36.95 79.9 41.45 79.95 44.33 78.32 44.44 69.42"/><polygon class="cls-5" points="44.7 63.63 45 69 36 72 27.71 72.95 26.35 69.97 25 67 26.6 61.96 44.7 63.63"/><circle class="cls-2" cx="42.5" cy="51.5" r="1.5"/><rect class="cls-6" x="54.79" y="54.6" width="4" height="13" transform="translate(48.3 -21.89) rotate(37.06)"/><path class="cls-6" d="M65,55.8l-3.28.82-.58-2.33L64,53.57a4.68,4.68,0,0,0-.87-.85c-1.76-1.33-4-1.34-5,0s-.38,3.47,1.39,4.81,4,1.33,5,0A2.47,2.47,0,0,0,65,55.8Z"/></g></g></svg>