<svg xmlns="http://www.w3.org/2000/svg" viewBox="0 0 76.31 86.36"><defs><style>.cls-1{fill:#f2c38c;}.cls-2{fill:#ffec00;}.cls-3{fill:#271a00;}.cls-4{fill:#cc7e0e;}.cls-5{fill:#417dff;}.cls-6{fill:#a6b2cc;}.cls-7{fill:none;stroke:#a6b2cc;stroke-miterlimit:10;stroke-width:2px;}.cls-8{fill:#fcf3e8;}.cls-9{fill:#733c02;}.cls-10{fill:#995002;}.cls-11{fill:#25468f;}</style></defs><title>man no wrench</title><g id="Layer_2" data-name="Layer 2"><g id="Layer_1-2" data-name="Layer 1"><path class="cls-1" d="M54.87,22.32c4.69,15.33-4.78,17.59-15.25,20.1S19,40,16.94,31.39s4.77-17.59,15.24-20.1S48.61,1.88,54.87,22.32Z"/><rect class="cls-2" x="38.3" y="13.98" width="26" height="4" transform="translate(-2.31 12.36) rotate(-13.44)"/><circle class="cls-3" cx="45.88" cy="23.44" r="3"/><ellipse class="cls-1" cx="56.91" cy="24.41" rx="3.5" ry="2.5" transform="matrix(0.79, -0.62, 0.62, 0.79, -2.9, 40.45)"/><ellipse class="cls-4" cx="52.96" cy="30.7" rx="5.67" ry="1.5" transform="translate(-8.16 34.15) rotate(-33.33)"/><rect class="cls-4" x="15.23" y="24.58" width="9.04" height="7.09" rx="1.15" transform="translate(-5.99 5.36) rotate(-13.44)"/><path class="cls-2" d="M55.53,16.51C55.88,18,14.06,28,13.71,26.5a21.5,21.5,0,1,1,41.82-10Z"/><polygon class="cls-5" points="45 63.96 26 63.96 26 45.96 29.45 44.96 38.95 44.96 45 47.96 45 63.96"/><rect class="cls-6" y="63.96" width="16" height="11"/><ellipse class="cls-7" cx="8" cy="65.46" rx="6" ry="7.5"/><path class="cls-1" d="M12.58,55.2c2.16,4.19-.11,5.21-2.62,6.34a4.85,4.85,0,0,1-6.48-2.25A4.85,4.85,0,0,1,6.1,53C8.61,51.82,9.69,49.61,12.58,55.2Z"/><path class="cls-1" d="M67.06,33.21c2.12-4.21,4.28-3,6.67-1.6A4.72,4.72,0,1,1,69,39.78C66.65,38.41,64.22,38.83,67.06,33.21Z"/><path class="cls-5" d="M22.28,47.29c.76,1.47-2.86,4.86-8.1,7.58s-8-2.61-2.76-5.33S21.52,45.82,22.28,47.29Z"/><path class="cls-5" d="M17,49c0,1.66,3.84,2.93,8.51,2.84s4.55-6.09-.12-6S17,47.31,17,49Z"/><rect class="cls-1" x="34" y="41.96" width="4" height="3"/><rect class="cls-5" x="33.75" y="41.13" width="3" height="7.49" transform="translate(78.42 7.57) rotate(87.31)"/><rect class="cls-8" x="29" y="51.96" width="2" height="12"/><rect class="cls-8" x="34.94" y="40.73" width="1.09" height="7.04" transform="matrix(0.05, 1, -1, 0.05, 78.03, 6.72)"/><path class="cls-9" d="M50.11,83.93c.37-2.65-3.88-5.44-9.51-6.23S33.41,80.58,33,83.23,49.74,86.58,50.11,83.93Z"/><path class="cls-10" d="M41.35,83.58c0-2.68-4.51-4.94-10.18-5.06s-6.8,3.71-6.86,6.38S41.29,86.25,41.35,83.58Z"/><polygon class="cls-5" points="35.21 68.63 25.63 68.42 25.38 79.63 27.11 80.3 31.9 80.4 34.99 78.6 35.21 68.63"/><polygon class="cls-5" points="54 43.96 57 47.96 69.02 38.74 68.66 37.54 66.51 35.49 63.85 35.53 54 43.96"/><polygon class="cls-5" points="40.11 48.92 42 53.96 57.05 48.31 57.55 47.08 56.6 44.56 53.49 43.9 40.11 48.92"/><polygon class="cls-11" points="44.44 68.38 35.44 68.27 35.32 78.28 36.95 78.86 41.45 78.91 44.33 77.28 44.44 68.38"/><polygon class="cls-5" points="44.7 62.59 45 67.96 36 70.96 27.71 71.91 26.35 68.93 25 65.96 26.6 60.92 44.7 62.59"/><circle class="cls-2" cx="42.5" cy="50.46" r="1.5"/></g></g></svg>