<svg xmlns="http://www.w3.org/2000/svg" viewBox="0 0 65.78 71.78"><defs><style>.cls-1{fill:#417dff;}.cls-2{fill:#a6b2cc;}.cls-3{fill:none;stroke:#a6b2cc;stroke-miterlimit:10;stroke-width:2px;}.cls-4{fill:#f2c38c;}.cls-5{fill:#fcf3e8;}.cls-6{fill:#733c02;}.cls-7{fill:#995002;}.cls-8{fill:#25468f;}.cls-9{fill:#ffec00;}.cls-10{fill:#271a00;}.cls-11{fill:#cc7e0e;}</style></defs><title>man crouching</title><g id="Layer_2" data-name="Layer 2"><g id="Layer_1-2" data-name="Layer 1"><polygon class="cls-1" points="39.95 54.38 20.95 54.38 20.95 41.12 24.41 40.38 33.91 40.38 39.95 42.59 39.95 54.38"/><rect class="cls-2" x="1.14" y="53.25" width="16" height="11" transform="matrix(0.97, -0.26, 0.26, 0.97, -14.79, 4.32)"/><ellipse class="cls-3" cx="8.12" cy="54.89" rx="6" ry="7.5" transform="matrix(0.97, -0.26, 0.26, 0.97, -13.83, 3.93)"/><path class="cls-4" d="M10.68,46.69c3.17,3.49,1.23,5.07-.91,6.8A4.85,4.85,0,0,1,2.93,53a4.85,4.85,0,0,1,.9-6.8C6,44.45,6.45,42,10.68,46.69Z"/><path class="cls-4" d="M50.78,55.32c4.26,2,3.07,4.21,1.76,6.63a4.72,4.72,0,1,1-8.28-4.48C45.57,55,45.09,52.63,50.78,55.32Z"/><path class="cls-1" d="M18.23,39.71c.77,1.47-2.86,4.87-8.09,7.58s-8-2.61-2.77-5.32S17.47,38.24,18.23,39.71Z"/><path class="cls-1" d="M13,41.39c0,1.65,3.84,2.92,8.52,2.83s4.55-6.09-.12-6S13,39.73,13,41.39Z"/><rect class="cls-1" x="29.7" y="39.55" width="3" height="7.49" transform="translate(72.99 10.11) rotate(87.31)"/><rect class="cls-5" x="24.95" y="44.38" width="2" height="10"/><rect class="cls-5" x="30.9" y="38.15" width="1.09" height="7.04" transform="matrix(0.05, 1, -1, 0.05, 71.6, 8.31)"/><path class="cls-6" d="M46.06,69.35c.38-2.64-3.88-5.43-9.51-6.23S29.37,66,29,68.65,45.69,72,46.06,69.35Z"/><path class="cls-7" d="M33.3,69c.06-2.67-4.49-5-10.16-5.1s-6.81,3.69-6.88,6.37S33.23,71.7,33.3,69Z"/><polygon class="cls-1" points="28.16 55.05 18.59 54.84 18.34 66.06 20.07 66.72 24.86 66.82 27.94 65.02 28.16 55.05"/><polygon class="cls-1" points="40.98 45.48 36.98 49.89 45.3 57.42 46.49 57.04 48.49 54.83 48.37 52.17 40.98 45.48"/><polygon class="cls-8" points="40.39 54.8 31.39 54.69 31.27 64.71 32.9 65.28 37.4 65.34 40.28 63.7 40.39 54.8"/><polygon class="cls-1" points="40.64 51.9 40.92 57.05 31 60.02 21.87 61.02 20.41 58.17 18.95 55.33 20.76 50.47 40.64 51.9"/><circle class="cls-9" cx="37.45" cy="46.88" r="1.5"/><rect class="cls-2" x="49.32" y="52.48" width="4" height="13" transform="translate(57.25 -18.97) rotate(45.38)"/><path class="cls-2" d="M60.17,54.92l-3.36.34-.24-2.4,3-.29a5.2,5.2,0,0,0-.74-1C57.24,50,55,49.7,53.84,50.86s-.87,3.38.68,5,3.76,1.9,4.94.74A2.47,2.47,0,0,0,60.17,54.92Z"/><path class="cls-4" d="M52.55,32.71C48.61,48.25,39.35,45.27,29.09,42S12.72,29.19,15.42,20.78,28.63,8.21,38.88,11.51,57.81,12,52.55,32.71Z"/><rect class="cls-9" x="39.79" y="23.43" width="26" height="4" transform="translate(10.31 -14.93) rotate(17.81)"/><circle class="cls-10" cx="44.29" cy="29" r="3"/><ellipse class="cls-4" cx="53.22" cy="35.55" rx="3.5" ry="2.5" transform="translate(-3.93 6.73) rotate(-6.98)"/><ellipse class="cls-11" cx="46.57" cy="38.88" rx="5.67" ry="1.5" transform="translate(-1.38 1.71) rotate(-2.08)"/><rect class="cls-11" x="15.01" y="15.9" width="9.04" height="7.09" rx="1.15" transform="translate(6.88 -5.04) rotate(17.81)"/><path class="cls-9" d="M56.14,28.08c-.46,1.43-41.4-11.72-40.94-13.15A21.5,21.5,0,0,1,56.14,28.08Z"/></g></g></svg>