<svg xmlns="http://www.w3.org/2000/svg" viewBox="0 0 180.59 31"><defs><style>.cls-1{fill:#efbe69;}.cls-2,.cls-3,.cls-4,.cls-5{fill:none;stroke:#b3936c;stroke-miterlimit:10;}.cls-2{stroke-width:0.5px;}.cls-4{stroke-width:0.25px;}.cls-5{stroke-width:0.75px;}</style></defs><title>plank fixed</title><g id="Layer_2" data-name="Layer 2"><g id="Layer_1-2" data-name="Layer 1"><rect class="cls-1" x="0.17" width="180" height="31"/><ellipse class="cls-2" cx="24.67" cy="12.5" rx="2.5" ry="1.5"/><ellipse class="cls-2" cx="24.92" cy="12.25" rx="8.75" ry="2.25"/><ellipse class="cls-3" cx="23.92" cy="12.25" rx="12.75" ry="4.25"/><path class="cls-3" d="M.05,18.92c3.81-.4,7,.87,7.56,2.42.62,1.74-2.07,5.24-6.94,6.16"/><path class="cls-3" d="M.05,18.92c3.81-.4,7,.87,7.56,2.42"/><path class="cls-2" d="M.55,20.27C3.2,20,5.41,20.86,5.79,22S4.33,25.68,1,26.35"/><path class="cls-4" d="M.55,20.27C3.2,20,5.41,20.86,5.79,22"/><path class="cls-3" d="M179.46,12.57c-14,.26-26.86-1.14-30.05-2.73-3.58-1.77,12.73-4.6,30.26-5.34"/><path class="cls-5" d="M180.44,10.8c-8.94.16-17.21-.73-19.26-1.75-2.3-1.14,8.16-3,19.4-3.43"/><ellipse class="cls-3" cx="87.67" cy="17" rx="19" ry="4.5"/><ellipse class="cls-2" cx="88.17" cy="17" rx="13.5" ry="3.5"/><ellipse class="cls-2" cx="88.17" cy="16.5" rx="4.5" ry="2"/></g></g></svg>