<svg xmlns="http://www.w3.org/2000/svg" viewBox="0 0 175.17 30"><defs><style>.cls-1{fill:#efbe69;}.cls-2,.cls-3,.cls-4,.cls-5{fill:none;stroke:#b3936c;stroke-miterlimit:10;}.cls-2{stroke-width:0.5px;}.cls-4{stroke-width:0.25px;}.cls-5{stroke-width:0.75px;}</style></defs><title>plank</title><g id="Layer_2" data-name="Layer 2"><g id="Layer_1-2" data-name="Layer 1"><polygon class="cls-1" points="71.86 29.21 0.17 30 0.17 0 72.6 0 71.13 1.58 74.82 2.37 68.17 3.95 82.21 5.73 63.73 7.11 71.13 10.26 69.65 12.63 85.17 16.58 68.91 17.37 80.73 18.95 68.17 20.53 83.69 22.11 66.69 23.68 74.08 25.26 68.17 26.84 72.02 27.76 65.21 28.42 71.86 29.21"/><polygon class="cls-1" points="103.47 0.79 175.17 0 175.17 30 102.73 30 104.21 28.42 100.52 27.63 107.17 26.05 93.13 24.27 111.6 22.89 104.21 19.74 105.69 17.37 90.17 13.42 106.43 12.63 94.6 11.05 107.17 9.47 91.65 7.89 108.65 6.32 101.25 4.74 107.17 3.16 103.32 2.24 110.13 1.58 103.47 0.79"/><ellipse class="cls-2" cx="24.67" cy="13.5" rx="2.5" ry="1.5"/><ellipse class="cls-2" cx="24.92" cy="13.25" rx="8.75" ry="2.25"/><ellipse class="cls-3" cx="23.92" cy="13.25" rx="12.75" ry="4.25"/><path class="cls-3" d="M67.92,20.26c-4.4.43-8-1.25-8.45-3.24-.56-2.23,2.42-6.12,8.08-7.19"/><path class="cls-3" d="M.05,19.92c3.81-.4,7,.87,7.56,2.42.62,1.74-2.07,5.24-6.94,6.16"/><path class="cls-3" d="M.05,19.92c3.81-.4,7,.87,7.56,2.42"/><path class="cls-2" d="M.55,21.27C3.2,21,5.41,21.86,5.79,23S4.33,26.68,1,27.35"/><path class="cls-4" d="M.55,21.27C3.2,21,5.41,21.86,5.79,23"/><path class="cls-5" d="M68.61,19c-3.26.13-6-1-6.39-2.3-.49-1.42,1.6-3.76,5.77-4.25"/><path class="cls-4" d="M69.35,17.13c-1.27.17-2.28-.33-2.4-1s.75-2,2.39-2.38"/><path class="cls-3" d="M105.67,8.74c4.26-1.17,8-.11,8.88,1.76.93,2.11-1.35,6.45-6.74,8.46"/><path class="cls-2" d="M105.21,10.12c3.19-.68,6.05,0,6.69,1.19s-.94,4-5,5.16"/><path class="cls-3" d="M174.46,12.57c-14,.26-26.86-1.14-30.05-2.73-3.58-1.77,12.73-4.6,30.26-5.34"/><path class="cls-5" d="M174.44,10.8c-8.94.16-17.21-.73-19.26-1.75-2.3-1.14,8.16-3,19.4-3.43"/></g></g></svg>