<svg xmlns="http://www.w3.org/2000/svg" viewBox="0 0 170.51 84.71"><defs><style>.cls-1{fill:#96c1d9;}.cls-2{fill:#86a3b3;}.cls-3{fill:#e1f4ff;}.cls-4{fill:#76848c;}</style></defs><title>steelbeam 1</title><g id="Layer_2" data-name="Layer 2"><g id="Layer_1-2" data-name="Layer 1"><rect class="cls-1" x="-2.7" y="24.45" width="85.24" height="21.73" transform="translate(31.23 -17.27) rotate(39.12)"/><rect class="cls-2" x="-7.5" y="39.7" width="85.24" height="3.04" transform="translate(33.88 -12.92) rotate(39.12)"/><rect class="cls-3" x="45.36" y="-15.06" width="1.74" height="85.24" transform="translate(-4.32 46.04) rotate(-50.88)"/><rect class="cls-3" x="-9" y="42.2" width="85.24" height="1.74" transform="translate(34.71 -11.55) rotate(39.12)"/><rect class="cls-2" x="2.1" y="27.9" width="85.24" height="3.04" transform="matrix(0.78, 0.63, -0.63, 0.78, 28.58, -21.62)"/><circle class="cls-4" cx="72.78" cy="62.03" r="4.18"/><circle class="cls-4" cx="60.59" cy="52.12" r="4.18"/><circle class="cls-4" cx="48.4" cy="42.21" r="4.18"/><circle class="cls-4" cx="36.21" cy="32.3" r="4.18"/><circle class="cls-4" cx="24.02" cy="22.38" r="4.18"/><circle class="cls-4" cx="11.83" cy="12.47" r="4.18"/><rect class="cls-1" x="95.18" y="32.37" width="85.24" height="21.73" transform="translate(250.3 -47.33) rotate(123.74)"/><rect class="cls-2" x="101.5" y="45.94" width="85.24" height="3.04" transform="translate(263.65 -46.02) rotate(123.74)"/><rect class="cls-3" x="86.87" y="36.81" width="85.24" height="1.74" transform="translate(26.22 124.42) rotate(-56.26)"/><rect class="cls-3" x="103.49" y="47.92" width="85.24" height="1.74" transform="translate(267.84 -45.6) rotate(123.74)"/><rect class="cls-2" x="88.85" y="37.49" width="85.24" height="3.04" transform="matrix(-0.56, 0.83, -0.83, -0.56, 236.95, -48.64)"/><circle class="cls-4" cx="114.28" cy="78.44" r="4.18"/><circle class="cls-4" cx="123.01" cy="65.38" r="4.18"/><circle class="cls-4" cx="131.73" cy="52.32" r="4.18"/><circle class="cls-4" cx="140.46" cy="39.25" r="4.18"/><circle class="cls-4" cx="149.19" cy="26.19" r="4.18"/><circle class="cls-4" cx="157.92" cy="13.12" r="4.18"/></g></g></svg>