<svg xmlns="http://www.w3.org/2000/svg" viewBox="0 0 178.48 64.43"><defs><style>.cls-1{fill:#96c1d9;}.cls-2{fill:#86a3b3;}.cls-3{fill:#e1f4ff;}.cls-4{fill:#76848c;}</style></defs><title>steel beam 2</title><g id="Layer_2" data-name="Layer 2"><g id="Layer_1-2" data-name="Layer 1"><rect class="cls-1" x="1.32" y="13.7" width="85.24" height="21.73" transform="translate(5.95 -8.46) rotate(11.8)"/><rect class="cls-2" x="-0.23" y="30.49" width="85.24" height="3.04" transform="translate(7.44 -7.99) rotate(11.8)"/><rect class="cls-3" x="45.12" y="-27.84" width="1.74" height="85.24" transform="translate(22.12 56.77) rotate(-78.2)"/><rect class="cls-3" x="-0.72" y="33.48" width="85.24" height="1.74" transform="translate(7.91 -7.84) rotate(11.8)"/><rect class="cls-2" x="2.88" y="15.6" width="85.24" height="3.04" transform="translate(4.46 -8.94) rotate(11.8)"/><circle class="cls-4" cx="85.39" cy="33.22" r="4.18"/><circle class="cls-4" cx="70.01" cy="30.01" r="4.18"/><circle class="cls-4" cx="54.63" cy="26.8" r="4.18"/><circle class="cls-4" cx="39.25" cy="23.59" r="4.18"/><circle class="cls-4" cx="23.87" cy="20.37" r="4.18"/><circle class="cls-4" cx="8.49" cy="17.16" r="4.18"/><rect class="cls-1" x="94.15" y="21.35" width="85.24" height="21.73" transform="translate(269.19 -14.78) rotate(147.21)"/><rect class="cls-2" x="98.27" y="37.09" width="85.24" height="3.04" transform="translate(280.24 -5.24) rotate(147.21)"/><rect class="cls-3" x="88.74" y="22.95" width="85.24" height="1.74" transform="translate(8.04 74.94) rotate(-32.79)"/><rect class="cls-3" x="99.56" y="39.75" width="85.24" height="1.74" transform="translate(283.71 -2.24) rotate(147.21)"/><rect class="cls-2" x="90.03" y="24.3" width="85.24" height="3.04" transform="translate(258.15 -24.31) rotate(147.21)"/><circle class="cls-4" cx="101.18" cy="55.15" r="4.18"/><circle class="cls-4" cx="114.38" cy="46.64" r="4.18"/><circle class="cls-4" cx="127.59" cy="38.13" r="4.18"/><circle class="cls-4" cx="140.8" cy="29.62" r="4.18"/><circle class="cls-4" cx="154.01" cy="21.11" r="4.18"/><circle class="cls-4" cx="167.21" cy="12.6" r="4.18"/></g></g></svg>