<svg xmlns="http://www.w3.org/2000/svg" viewBox="0 0 173.68 22.96"><defs><style>.cls-1{fill:#fffee8;}</style></defs><title>steel beam fixed</title><g id="Layer_2" data-name="Layer 2"><g id="Layer_1-2" data-name="Layer 1"><rect class="cls-1" x="0.08" y="0.62" width="173.53" height="21.73" transform="translate(-0.08 0.62) rotate(-0.41)"/><rect class="cls-1" x="0.13" y="17.56" width="173.53" height="3.04" transform="translate(-0.13 0.62) rotate(-0.41)"/><rect class="cls-1" y="0.62" width="173.53" height="1.74" transform="translate(-0.01 0.62) rotate(-0.41)"/><rect class="cls-1" x="0.15" y="20.61" width="173.53" height="1.74" transform="translate(-0.15 0.62) rotate(-0.41)"/><rect class="cls-1" x="0.02" y="2.36" width="173.53" height="3.04" transform="translate(-0.03 0.62) rotate(-0.41)"/><circle class="cls-1" cx="7.63" cy="11.96" r="4"/><circle class="cls-1" cx="25.18" cy="11.84" r="4"/><circle class="cls-1" cx="42.74" cy="11.73" r="4"/><circle class="cls-1" cx="60.3" cy="11.62" r="4"/><circle class="cls-1" cx="77.85" cy="11.51" r="4"/><circle class="cls-1" cx="95.41" cy="11.4" r="4"/><circle class="cls-1" cx="112.96" cy="11.29" r="4"/><circle class="cls-1" cx="130.52" cy="11.18" r="4"/><circle class="cls-1" cx="148.07" cy="11.07" r="4"/><circle class="cls-1" cx="165.63" cy="10.96" r="4"/></g></g></svg>